<?xml version="1.0" encoding="UTF-8" standalone="no"?>
<!-- Created with Inkscape (http://www.inkscape.org/) -->

<svg
   xmlns:dc="http://purl.org/dc/elements/1.1/"
   xmlns:cc="http://creativecommons.org/ns#"
   xmlns:rdf="http://www.w3.org/1999/02/22-rdf-syntax-ns#"
   xmlns:svg="http://www.w3.org/2000/svg"
   xmlns="http://www.w3.org/2000/svg"
   xmlns:sodipodi="http://sodipodi.sourceforge.net/DTD/sodipodi-0.dtd"
   xmlns:inkscape="http://www.inkscape.org/namespaces/inkscape"
   width="191.34212mm"
   height="38.081165mm"
   viewBox="0 0 677.98388 134.93326"
   id="svg5341"
   version="1.1"
   inkscape:version="0.91 r13725"
   sodipodi:docname="logo-w.svg">
  <defs
     id="defs5343">
    <clipPath
       clipPathUnits="userSpaceOnUse"
       id="clipPath4242">
      <path
         sodipodi:type="star"
         style="fill:#3c6faf;fill-opacity:0.94117647;fill-rule:evenodd;stroke:none;stroke-width:1px;stroke-linecap:butt;stroke-linejoin:miter;stroke-opacity:1"
         id="path4244"
         sodipodi:sides="6"
         sodipodi:cx="240.41631"
         sodipodi:cy="298.78842"
         sodipodi:r1="207.00488"
         sodipodi:r2="167.47047"
         sodipodi:arg1="0.31249156"
         sodipodi:arg2="0.83609034"
         inkscape:flatsided="true"
         inkscape:rounded="0"
         inkscape:randomized="0"
         d="M 437.39605,362.42803 283.79266,501.19769 86.812911,437.55808 43.436557,235.14881 197.03995,96.37915 394.0197,160.01876 Z"
         inkscape:transform-center-x="7.5974368"
         inkscape:transform-center-y="-23.512417"
         transform="matrix(0.74918284,-0.3853385,0.23963632,1.2046963,46.159583,-77.647972)" />
    </clipPath>
    <clipPath
       clipPathUnits="userSpaceOnUse"
       id="clipPath4246">
      <path
         sodipodi:type="star"
         style="fill:#3c6faf;fill-opacity:0.94117647;fill-rule:evenodd;stroke:none;stroke-width:1px;stroke-linecap:butt;stroke-linejoin:miter;stroke-opacity:1"
         id="path4248"
         sodipodi:sides="6"
         sodipodi:cx="240.41631"
         sodipodi:cy="298.78842"
         sodipodi:r1="207.00488"
         sodipodi:r2="167.47047"
         sodipodi:arg1="0.31249156"
         sodipodi:arg2="0.83609034"
         inkscape:flatsided="true"
         inkscape:rounded="0"
         inkscape:randomized="0"
         d="M 437.39605,362.42803 283.79266,501.19769 86.812911,437.55808 43.436557,235.14881 197.03995,96.37915 394.0197,160.01876 Z"
         inkscape:transform-center-x="7.5974368"
         inkscape:transform-center-y="-23.512417" />
    </clipPath>
  </defs>
  <sodipodi:namedview
     id="base"
     pagecolor="#ffffff"
     bordercolor="#666666"
     borderopacity="1.0"
     inkscape:pageopacity="0.0"
     inkscape:pageshadow="2"
     inkscape:zoom="1.4"
     inkscape:cx="154.80456"
     inkscape:cy="43.059502"
     inkscape:document-units="px"
     inkscape:current-layer="layer1"
     showgrid="false"
     fit-margin-top="0"
     fit-margin-left="0"
     fit-margin-right="0"
     fit-margin-bottom="0"
     inkscape:window-width="3200"
     inkscape:window-height="1680"
     inkscape:window-x="0"
     inkscape:window-y="48"
     inkscape:window-maximized="1" />
  <metadata
     id="metadata5346">
    <rdf:RDF>
      <cc:Work
         rdf:about="">
        <dc:format>image/svg+xml</dc:format>
        <dc:type
           rdf:resource="http://purl.org/dc/dcmitype/StillImage" />
        <dc:title></dc:title>
      </cc:Work>
    </rdf:RDF>
  </metadata>
  <g
     inkscape:label="Layer 1"
     inkscape:groupmode="layer"
     id="layer1"
     transform="translate(-41.008058,-367.75271)">
    <g
       id="g5913">
      <path
         clip-path="url(#clipPath4246)"
         transform="matrix(0.35483292,-0.11446229,0.11349813,0.3578472,-1.0936122,355.81735)"
         inkscape:transform-center-y="-23.512417"
         inkscape:transform-center-x="7.5974368"
         d="M 437.39605,362.42803 283.79266,501.19769 86.812911,437.55808 43.436557,235.14881 197.03995,96.37915 394.0197,160.01876 Z"
         inkscape:randomized="0"
         inkscape:rounded="0"
         inkscape:flatsided="true"
         sodipodi:arg2="0.83609034"
         sodipodi:arg1="0.31249156"
         sodipodi:r2="167.47047"
         sodipodi:r1="207.00488"
         sodipodi:cy="298.78842"
         sodipodi:cx="240.41631"
         sodipodi:sides="6"
         id="path3336"
         style="fill:#fc4349;fill-opacity:0.94117647;fill-rule:evenodd;stroke:none;stroke-width:1px;stroke-linecap:butt;stroke-linejoin:miter;stroke-opacity:1"
         sodipodi:type="star" />
      <g
         clip-path="url(#clipPath4242)"
         transform="matrix(0.47362659,0,0,0.29704349,-22.956018,378.88217)"
         style="shape-rendering:crispEdges"
         id="g4202">
        <polyline
           style="fill:none;stroke:#ffffff;stroke-width:7"
           points="74.88,272.406 75.996,272.921 77.112,273.551 78.228,274.291 79.344,275.135 80.46,276.076 81.576,277.105 82.692,278.213 83.808,279.389 84.924,280.623 86.04,281.902 87.156,283.215 88.272,284.548 89.388,285.89 90.504,287.225 91.62,288.541 92.736,289.825 93.852,291.063 94.968,292.243 96.084,293.352 97.2,294.378 98.316,295.31 99.432,296.138 100.548,296.852 101.664,297.444 102.78,297.906 103.896,298.233 105.012,298.419 106.128,298.462 107.244,298.358 108.36,298.108 109.476,297.712 110.592,297.172 111.708,296.492 112.824,295.678 113.94,294.734 115.056,293.671 116.172,292.496 117.288,291.219 118.404,289.854 119.52,288.411 120.636,286.904 121.752,285.349 122.868,283.758 123.984,282.149 125.1,280.536 126.216,278.936 127.332,277.365 128.448,275.838 129.564,274.373 130.68,272.983 131.796,271.685 132.912,270.492 134.028,269.417 135.144,268.473 136.26,267.671 137.376,267.021 138.492,266.532 139.608,266.21 140.724,266.062 141.84,266.091 142.956,266.3 144.072,266.688 145.188,267.255 146.304,267.998 147.42,268.912 148.536,269.991 149.652,271.225 150.768,272.606 151.884,274.121 153,275.758 154.116,277.502 155.232,279.337 156.348,281.247 157.464,283.215 158.58,285.22 159.696,287.244 160.812,289.268 161.928,291.27 163.044,293.231 164.16,295.131 165.276,296.949 166.392,298.666 167.508,300.264 168.624,301.724 169.74,303.03 170.856,304.166 171.972,305.118 173.088,305.872 174.204,306.419 175.32,306.748 176.436,306.852 177.552,306.728 178.668,306.37 179.784,305.779 180.9,304.955 182.016,303.904 183.132,302.63 184.248,301.141 185.364,299.45 186.48,297.567 187.596,295.508 188.712,293.29 189.828,290.931 190.944,288.452 192.06,285.875 193.176,283.223 194.292,280.52 195.408,277.793 196.524,275.067 197.64,272.37 198.756,269.728 199.872,267.17 200.988,264.722 202.104,262.41 203.22,260.261 204.336,258.3 205.452,256.55 206.568,255.034 207.684,253.773 208.8,252.785 209.916,252.086 211.032,251.691 212.148,251.612 213.264,251.857 214.38,252.433 215.496,253.344 216.612,254.588 217.728,256.164 218.844,258.065 219.96,260.282 221.076,262.803 222.192,265.612 223.308,268.69 224.424,272.015 225.54,275.563 226.656,279.306 227.772,283.215 228.888,287.256 230.004,291.396 231.12,295.597 232.236,299.822 233.352,304.031 234.468,308.182 235.584,312.235 236.7,316.146 237.816,319.874 238.932,323.377 240.048,326.612 241.164,329.538 242.28,332.117 243.396,334.309 244.512,336.078 245.628,337.389 246.744,338.212 247.86,338.516 248.976,338.275 250.092,337.468 251.208,336.074 252.324,334.077 253.44,331.467 254.556,328.235 255.672,324.379 256.788,319.898 257.904,314.799 259.02,309.091 260.136,302.787 261.252,295.907 262.368,288.473 263.484,280.513 264.6,272.056 265.716,263.138 266.832,253.798 267.948,244.078 269.064,234.024 270.18,223.683 271.296,213.107 272.412,202.349 273.528,191.465 274.644,180.512 275.76,169.548 276.876,158.633 277.992,147.825 279.108,137.186 280.224,126.774 281.34,116.649 282.456,106.867 283.572,97.4849 284.688,88.5569 285.804,80.1349 286.92,72.2678 288.036,65.0018 289.152,58.3797 290.268,52.4407 291.384,47.2198 292.5,42.7484 293.616,39.0529 294.732,36.1553 295.848,34.0732 296.964,32.8189 298.08,32.4 299.196,32.8189 300.312,34.0732 301.428,36.1553 302.544,39.0529 303.66,42.7484 304.776,47.2198 305.892,52.4407 307.008,58.3797 308.124,65.0018 309.24,72.2678 310.356,80.1349 311.472,88.5569 312.588,97.4849 313.704,106.867 314.82,116.649 315.936,126.774 317.052,137.186 318.168,147.825 319.284,158.633 320.4,169.548 321.516,180.512 322.632,191.465 323.748,202.349 324.864,213.107 325.98,223.683 327.096,234.024 328.212,244.078 329.328,253.798 330.444,263.138 331.56,272.056 332.676,280.513 333.792,288.473 334.908,295.907 336.024,302.787 337.14,309.091 338.256,314.799 339.372,319.898 340.488,324.379 341.604,328.235 342.72,331.467 343.836,334.077 344.952,336.074 346.068,337.468 347.184,338.275 348.3,338.516 349.416,338.212 350.532,337.389 351.648,336.078 352.764,334.309 353.88,332.117 354.996,329.538 356.112,326.612 357.228,323.377 358.344,319.874 359.46,316.146 360.576,312.235 361.692,308.182 362.808,304.031 363.924,299.822 365.04,295.597 366.156,291.396 367.272,287.256 368.388,283.215 369.504,279.306 370.62,275.563 371.736,272.015 372.852,268.69 373.968,265.612 375.084,262.803 376.2,260.282 377.316,258.065 378.432,256.164 379.548,254.588 380.664,253.344 381.78,252.433 382.896,251.857 384.012,251.612 385.128,251.691 386.244,252.086 387.36,252.785 388.476,253.773 389.592,255.034 390.708,256.55 391.824,258.3 392.94,260.261 394.056,262.41 395.172,264.722 396.288,267.17 397.404,269.728 398.52,272.37 399.636,275.067 400.752,277.793 401.868,280.52 402.984,283.223 404.1,285.875 405.216,288.452 406.332,290.931 407.448,293.29 408.564,295.508 409.68,297.567 410.796,299.45 411.912,301.141 413.028,302.63 414.144,303.904 415.26,304.955 416.376,305.779 417.492,306.37 418.608,306.728 419.724,306.852 420.84,306.748 421.956,306.419 423.072,305.872 424.188,305.118 425.304,304.166 426.42,303.03 427.536,301.724 428.652,300.264 429.768,298.666 430.884,296.949 432,295.131 433.116,293.231 434.232,291.27 435.348,289.268 436.464,287.244 437.58,285.22 438.696,283.215 439.812,281.247 440.928,279.337 442.044,277.502 443.16,275.758 444.276,274.121 445.392,272.606 446.508,271.225 447.624,269.991 448.74,268.912 449.856,267.998 450.972,267.255 452.088,266.688 453.204,266.3 454.32,266.091 455.436,266.062 456.552,266.21 457.668,266.532 458.784,267.021 459.9,267.671 461.016,268.473 462.132,269.417 463.248,270.492 464.364,271.685 465.48,272.983 466.596,274.373 467.712,275.838 468.828,277.365 469.944,278.936 471.06,280.536 472.176,282.149 473.292,283.758 474.408,285.349 475.524,286.904 476.64,288.411 477.756,289.854 478.872,291.219 479.988,292.496 481.104,293.671 482.22,294.734 483.336,295.678 484.452,296.492 485.568,297.172 486.684,297.712 487.8,298.108 488.916,298.358 490.032,298.462 491.148,298.419 492.264,298.233 493.38,297.906 494.496,297.444 495.612,296.852 496.728,296.138 497.844,295.31 498.96,294.378 500.076,293.352 501.192,292.243 502.308,291.063 503.424,289.825 504.54,288.541 505.656,287.225 506.772,285.89 507.888,284.548 509.004,283.215 510.12,281.902 511.236,280.623 512.352,279.389 513.468,278.213 514.584,277.105 515.7,276.076 516.816,275.135 517.932,274.291 519.048,273.551 520.164,272.921 521.28,272.406"
           id="polyline4204" />
        <polyline
           style="fill:none;stroke:#ffffff;stroke-width:5"
           points="74.88,286.182 75.996,286.079 77.112,285.953 78.228,285.805 79.344,285.636 80.46,285.448 81.576,285.242 82.692,285.02 83.808,284.785 84.924,284.538 86.04,284.282 87.156,284.02 88.272,283.753 89.388,283.485 90.504,283.218 91.62,282.955 92.736,282.698 93.852,282.45 94.968,282.214 96.084,281.992 97.2,281.787 98.316,281.601 99.432,281.435 100.548,281.292 101.664,281.174 102.78,281.082 103.896,281.016 105.012,280.979 106.128,280.971 107.244,280.991 108.36,281.041 109.476,281.12 110.592,281.228 111.708,281.364 112.824,281.527 113.94,281.716 115.056,281.929 116.172,282.164 117.288,282.419 118.404,282.692 119.52,282.981 120.636,283.282 121.752,283.593 122.868,283.911 123.984,284.233 125.1,284.556 126.216,284.876 127.332,285.19 128.448,285.495 129.564,285.788 130.68,286.066 131.796,286.326 132.912,286.565 134.028,286.779 135.144,286.968 136.26,287.129 137.376,287.259 138.492,287.356 139.608,287.421 140.724,287.45 141.84,287.445 142.956,287.403 144.072,287.325 145.188,287.212 146.304,287.063 147.42,286.88 148.536,286.665 149.652,286.418 150.768,286.142 151.884,285.839 153,285.511 154.116,285.163 155.232,284.795 156.348,284.413 157.464,284.02 158.58,283.619 159.696,283.214 160.812,282.809 161.928,282.409 163.044,282.017 164.16,281.637 165.276,281.273 166.392,280.93 167.508,280.61 168.624,280.318 169.74,280.057 170.856,279.83 171.972,279.639 173.088,279.488 174.204,279.379 175.32,279.313 176.436,279.292 177.552,279.317 178.668,279.389 179.784,279.507 180.9,279.672 182.016,279.882 183.132,280.137 184.248,280.435 185.364,280.773 186.48,281.149 187.596,281.561 188.712,282.005 189.828,282.477 190.944,282.972 192.06,283.488 193.176,284.018 194.292,284.559 195.408,285.104 196.524,285.649 197.64,286.189 198.756,286.717 199.872,287.229 200.988,287.719 202.104,288.181 203.22,288.611 204.336,289.003 205.452,289.353 206.568,289.656 207.684,289.908 208.8,290.106 209.916,290.246 211.032,290.325 212.148,290.341 213.264,290.291 214.38,290.176 215.496,289.994 216.612,289.745 217.728,289.43 218.844,289.05 219.96,288.606 221.076,288.102 222.192,287.54 223.308,286.925 224.424,286.26 225.54,285.55 226.656,284.802 227.772,284.02 228.888,283.212 230.004,282.384 231.12,281.543 232.236,280.698 233.352,279.857 234.468,279.026 235.584,278.216 236.7,277.434 237.816,276.688 238.932,275.987 240.048,275.34 241.164,274.755 242.28,274.239 243.396,273.801 244.512,273.447 245.628,273.185 246.744,273.021 247.86,272.96 248.976,273.008 250.092,273.169 251.208,273.448 252.324,273.847 253.44,274.369 254.556,275.016 255.672,275.787 256.788,276.683 257.904,277.703 259.02,278.845 260.136,280.105 261.252,281.481 262.368,282.968 263.484,284.56 264.6,286.252 265.716,288.035 266.832,289.903 267.948,291.847 269.064,293.858 270.18,295.926 271.296,298.042 272.412,300.193 273.528,302.37 274.644,304.56 275.76,306.753 276.876,308.936 277.992,311.098 279.108,313.226 280.224,315.308 281.34,317.333 282.456,319.289 283.572,321.166 284.688,322.951 285.804,324.636 286.92,326.209 288.036,327.663 289.152,328.987 290.268,330.175 291.384,331.219 292.5,332.113 293.616,332.852 294.732,333.432 295.848,333.848 296.964,334.099 298.08,334.183 299.196,334.099 300.312,333.848 301.428,333.432 302.544,332.852 303.66,332.113 304.776,331.219 305.892,330.175 307.008,328.987 308.124,327.663 309.24,326.209 310.356,324.636 311.472,322.951 312.588,321.166 313.704,319.289 314.82,317.333 315.936,315.308 317.052,313.226 318.168,311.098 319.284,308.936 320.4,306.753 321.516,304.56 322.632,302.37 323.748,300.193 324.864,298.042 325.98,295.926 327.096,293.858 328.212,291.847 329.328,289.903 330.444,288.035 331.56,286.252 332.676,284.56 333.792,282.968 334.908,281.481 336.024,280.105 337.14,278.845 338.256,277.703 339.372,276.683 340.488,275.787 341.604,275.016 342.72,274.369 343.836,273.847 344.952,273.448 346.068,273.169 347.184,273.008 348.3,272.96 349.416,273.021 350.532,273.185 351.648,273.447 352.764,273.801 353.88,274.239 354.996,274.755 356.112,275.34 357.228,275.987 358.344,276.688 359.46,277.434 360.576,278.216 361.692,279.026 362.808,279.857 363.924,280.698 365.04,281.543 366.156,282.384 367.272,283.212 368.388,284.02 369.504,284.802 370.62,285.55 371.736,286.26 372.852,286.925 373.968,287.54 375.084,288.102 376.2,288.606 377.316,289.05 378.432,289.43 379.548,289.745 380.664,289.994 381.78,290.176 382.896,290.291 384.012,290.341 385.128,290.325 386.244,290.246 387.36,290.106 388.476,289.908 389.592,289.656 390.708,289.353 391.824,289.003 392.94,288.611 394.056,288.181 395.172,287.719 396.288,287.229 397.404,286.717 398.52,286.189 399.636,285.649 400.752,285.104 401.868,284.559 402.984,284.018 404.1,283.488 405.216,282.972 406.332,282.477 407.448,282.005 408.564,281.561 409.68,281.149 410.796,280.773 411.912,280.435 413.028,280.137 414.144,279.882 415.26,279.672 416.376,279.507 417.492,279.389 418.608,279.317 419.724,279.292 420.84,279.313 421.956,279.379 423.072,279.488 424.188,279.639 425.304,279.83 426.42,280.057 427.536,280.318 428.652,280.61 429.768,280.93 430.884,281.273 432,281.637 433.116,282.017 434.232,282.409 435.348,282.809 436.464,283.214 437.58,283.619 438.696,284.02 439.812,284.413 440.928,284.795 442.044,285.163 443.16,285.511 444.276,285.839 445.392,286.142 446.508,286.418 447.624,286.665 448.74,286.88 449.856,287.063 450.972,287.212 452.088,287.325 453.204,287.403 454.32,287.445 455.436,287.45 456.552,287.421 457.668,287.356 458.784,287.259 459.9,287.129 461.016,286.968 462.132,286.779 463.248,286.565 464.364,286.326 465.48,286.066 466.596,285.788 467.712,285.495 468.828,285.19 469.944,284.876 471.06,284.556 472.176,284.233 473.292,283.911 474.408,283.593 475.524,283.282 476.64,282.981 477.756,282.692 478.872,282.419 479.988,282.164 481.104,281.929 482.22,281.716 483.336,281.527 484.452,281.364 485.568,281.228 486.684,281.12 487.8,281.041 488.916,280.991 490.032,280.971 491.148,280.979 492.264,281.016 493.38,281.082 494.496,281.174 495.612,281.292 496.728,281.435 497.844,281.601 498.96,281.787 500.076,281.992 501.192,282.214 502.308,282.45 503.424,282.698 504.54,282.955 505.656,283.218 506.772,283.485 507.888,283.753 509.004,284.02 510.12,284.282 511.236,284.538 512.352,284.785 513.468,285.02 514.584,285.242 515.7,285.448 516.816,285.636 517.932,285.805 519.048,285.953 520.164,286.079 521.28,286.182"
           id="polyline4206" />
      </g>
      <text
         sodipodi:linespacing="0%"
         id="text4158"
         y="481.37164"
         x="218.46555"
         style="font-style:normal;font-variant:normal;font-weight:bold;font-stretch:normal;font-size:119.876091px;line-height:0%;font-family:Orbitron;-inkscape-font-specification:'Orbitron Bold';letter-spacing:-1.33195662px;word-spacing:0px;fill:#3c3d3d;fill-opacity:1;stroke:none;stroke-width:1px;stroke-linecap:butt;stroke-linejoin:miter;stroke-opacity:1"
         xml:space="preserve"><tspan
           style="font-style:normal;font-variant:normal;font-weight:bold;font-stretch:normal;font-family:Orbitron;-inkscape-font-specification:'Orbitron Bold';fill:#3c3d3d;fill-opacity:1"
           y="481.37164"
           x="218.46555"
           id="tspan4160"
           sodipodi:role="line">context</tspan></text>
    </g>
  </g>
</svg>
